<svg viewBox="0 0 330.0000305175781 200.00001525878906" xmlns="http://www.w3.org/2000/svg"><g><g><g><g><g><line x1="50" y1="178" x2="45" y2="178" style="visibility: inherit;" fill="rgb(0, 0, 0)" stroke="rgb(204, 204, 204)" stroke-width="1px"></line><line x1="50" y1="161.8181818181818" x2="45" y2="161.8181818181818" style="visibility: inherit;" fill="rgb(0, 0, 0)" stroke="rgb(204, 204, 204)" stroke-width="1px"></line><line x1="50" y1="145.63636363636363" x2="45" y2="145.63636363636363" style="visibility: inherit;" fill="rgb(0, 0, 0)" stroke="rgb(204, 204, 204)" stroke-width="1px"></line><line x1="50" y1="129.45454545454547" x2="45" y2="129.45454545454547" style="visibility: inherit;" fill="rgb(0, 0, 0)" stroke="rgb(204, 204, 204)" stroke-width="1px"></line><line x1="50" y1="113.27272727272727" x2="45" y2="113.27272727272727" style="visibility: inherit;" fill="rgb(0, 0, 0)" stroke="rgb(204, 204, 204)" stroke-width="1px"></line><line x1="50" y1="97.09090909090908" x2="45" y2="97.09090909090908" style="visibility: inherit;" fill="rgb(0, 0, 0)" stroke="rgb(204, 204, 204)" stroke-width="1px"></line><line x1="50" y1="80.90909090909092" x2="45" y2="80.90909090909092" style="visibility: inherit;" fill="rgb(0, 0, 0)" stroke="rgb(204, 204, 204)" stroke-width="1px"></line><line x1="50" y1="64.72727272727275" x2="45" y2="64.72727272727275" style="visibility: inherit;" fill="rgb(0, 0, 0)" stroke="rgb(204, 204, 204)" stroke-width="1px"></line><line x1="50" y1="48.54545454545456" x2="45" y2="48.54545454545456" style="visibility: inherit;" fill="rgb(0, 0, 0)" stroke="rgb(204, 204, 204)" stroke-width="1px"></line><line x1="50" y1="32.363636363636374" x2="45" y2="32.363636363636374" style="visibility: inherit;" fill="rgb(0, 0, 0)" stroke="rgb(204, 204, 204)" stroke-width="1px"></line><line x1="50" y1="16.181818181818187" x2="45" y2="16.181818181818187" style="visibility: inherit;" fill="rgb(0, 0, 0)" stroke="rgb(204, 204, 204)" stroke-width="1px"></line><line x1="50" y1="0" x2="45" y2="0" style="visibility: inherit;" fill="rgb(0, 0, 0)" stroke="rgb(204, 204, 204)" stroke-width="1px"></line></g><g transform="translate(40, 0)"><text x="0" y="178" dx="0em" dy="0.3em" style="text-anchor: end; visibility: hidden; font-family: Roboto, sans-serif; font-size: 12px; font-weight: 200;" fill="rgb(50, 49, 63)" stroke="none" stroke-width="1px">-0.2</text><text x="0" y="161.8181818181818" dx="0em" dy="0.3em" style="text-anchor: end; visibility: inherit; font-family: Roboto, sans-serif; font-size: 12px; font-weight: 200;" fill="rgb(50, 49, 63)" stroke="none" stroke-width="1px">0</text><text x="0" y="145.63636363636363" dx="0em" dy="0.3em" style="text-anchor: end; visibility: hidden; font-family: Roboto, sans-serif; font-size: 12px; font-weight: 200;" fill="rgb(50, 49, 63)" stroke="none" stroke-width="1px">0.2</text><text x="0" y="129.45454545454547" dx="0em" dy="0.3em" style="text-anchor: end; visibility: inherit; font-family: Roboto, sans-serif; font-size: 12px; font-weight: 200;" fill="rgb(50, 49, 63)" stroke="none" stroke-width="1px">0.4</text><text x="0" y="113.27272727272727" dx="0em" dy="0.3em" style="text-anchor: end; visibility: hidden; font-family: Roboto, sans-serif; font-size: 12px; font-weight: 200;" fill="rgb(50, 49, 63)" stroke="none" stroke-width="1px">0.6</text><text x="0" y="97.09090909090908" dx="0em" dy="0.3em" style="text-anchor: end; visibility: inherit; font-family: Roboto, sans-serif; font-size: 12px; font-weight: 200;" fill="rgb(50, 49, 63)" stroke="none" stroke-width="1px">0.8</text><text x="0" y="80.90909090909092" dx="0em" dy="0.3em" style="text-anchor: end; visibility: hidden; font-family: Roboto, sans-serif; font-size: 12px; font-weight: 200;" fill="rgb(50, 49, 63)" stroke="none" stroke-width="1px">1</text><text x="0" y="64.72727272727275" dx="0em" dy="0.3em" style="text-anchor: end; visibility: inherit; font-family: Roboto, sans-serif; font-size: 12px; font-weight: 200;" fill="rgb(50, 49, 63)" stroke="none" stroke-width="1px">1.2</text><text x="0" y="48.54545454545456" dx="0em" dy="0.3em" style="text-anchor: end; visibility: hidden; font-family: Roboto, sans-serif; font-size: 12px; font-weight: 200;" fill="rgb(50, 49, 63)" stroke="none" stroke-width="1px">1.4</text><text x="0" y="32.363636363636374" dx="0em" dy="0.3em" style="text-anchor: end; visibility: inherit; font-family: Roboto, sans-serif; font-size: 12px; font-weight: 200;" fill="rgb(50, 49, 63)" stroke="none" stroke-width="1px">1.6</text><text x="0" y="16.181818181818187" dx="0em" dy="0.3em" style="text-anchor: end; visibility: hidden; font-family: Roboto, sans-serif; font-size: 12px; font-weight: 200;" fill="rgb(50, 49, 63)" stroke="none" stroke-width="1px">1.8</text><text x="0" y="0" dx="0em" dy="0.3em" style="text-anchor: end; visibility: hidden; font-family: Roboto, sans-serif; font-size: 12px; font-weight: 200;" fill="rgb(50, 49, 63)" stroke="none" stroke-width="1px">2</text></g><line x1="50" y1="0" x2="50" y2="178" fill="rgb(0, 0, 0)" stroke="rgb(204, 204, 204)" stroke-width="1px"></line></g></g><g transform="translate(50, 0)" clip-path="url(#clip_0)"><clipPath id="clip_0"><rect width="280" height="178"></rect></clipPath><g><g><g><line x1="0" y1="0" x2="0" y2="178" fill="rgb(0, 0, 0)" stroke="rgb(60, 60, 60)" stroke-width="1px" opacity="0.25"></line><line x1="25.454545454545457" y1="0" x2="25.454545454545457" y2="178" fill="rgb(0, 0, 0)" stroke="rgb(60, 60, 60)" stroke-width="1px" opacity="0.25"></line><line x1="50.909090909090914" y1="0" x2="50.909090909090914" y2="178" fill="rgb(0, 0, 0)" stroke="rgb(60, 60, 60)" stroke-width="1px" opacity="0.25"></line><line x1="76.36363636363636" y1="0" x2="76.36363636363636" y2="178" fill="rgb(0, 0, 0)" stroke="rgb(60, 60, 60)" stroke-width="1px" opacity="0.25"></line><line x1="101.81818181818183" y1="0" x2="101.81818181818183" y2="178" fill="rgb(0, 0, 0)" stroke="rgb(60, 60, 60)" stroke-width="1px" opacity="0.25"></line><line x1="127.27272727272727" y1="0" x2="127.27272727272727" y2="178" fill="rgb(0, 0, 0)" stroke="rgb(60, 60, 60)" stroke-width="1px" opacity="0.25"></line><line x1="152.72727272727272" y1="0" x2="152.72727272727272" y2="178" fill="rgb(0, 0, 0)" stroke="rgb(60, 60, 60)" stroke-width="1px" opacity="0.25"></line><line x1="178.1818181818182" y1="0" x2="178.1818181818182" y2="178" fill="rgb(0, 0, 0)" stroke="rgb(60, 60, 60)" stroke-width="1px" opacity="0.25"></line><line x1="203.63636363636365" y1="0" x2="203.63636363636365" y2="178" fill="rgb(0, 0, 0)" stroke="rgb(60, 60, 60)" stroke-width="1px" opacity="0.25"></line><line x1="229.0909090909091" y1="0" x2="229.0909090909091" y2="178" fill="rgb(0, 0, 0)" stroke="rgb(60, 60, 60)" stroke-width="1px" opacity="0.25"></line><line x1="254.54545454545453" y1="0" x2="254.54545454545453" y2="178" fill="rgb(0, 0, 0)" stroke="rgb(60, 60, 60)" stroke-width="1px" opacity="0.25"></line><line x1="280" y1="0" x2="280" y2="178" fill="rgb(0, 0, 0)" stroke="rgb(60, 60, 60)" stroke-width="1px" opacity="0.25"></line></g><g><line x1="0" y1="178" x2="280" y2="178" fill="rgb(0, 0, 0)" stroke="rgb(60, 60, 60)" stroke-width="1px" opacity="0.25"></line><line x1="0" y1="161.8181818181818" x2="280" y2="161.8181818181818" fill="rgb(0, 0, 0)" stroke="rgb(60, 60, 60)" stroke-width="1px" opacity="0.25"></line><line x1="0" y1="145.63636363636363" x2="280" y2="145.63636363636363" fill="rgb(0, 0, 0)" stroke="rgb(60, 60, 60)" stroke-width="1px" opacity="0.25"></line><line x1="0" y1="129.45454545454547" x2="280" y2="129.45454545454547" fill="rgb(0, 0, 0)" stroke="rgb(60, 60, 60)" stroke-width="1px" opacity="0.25"></line><line x1="0" y1="113.27272727272727" x2="280" y2="113.27272727272727" fill="rgb(0, 0, 0)" stroke="rgb(60, 60, 60)" stroke-width="1px" opacity="0.25"></line><line x1="0" y1="97.09090909090908" x2="280" y2="97.09090909090908" fill="rgb(0, 0, 0)" stroke="rgb(60, 60, 60)" stroke-width="1px" opacity="0.25"></line><line x1="0" y1="80.90909090909092" x2="280" y2="80.90909090909092" fill="rgb(0, 0, 0)" stroke="rgb(60, 60, 60)" stroke-width="1px" opacity="0.25"></line><line x1="0" y1="64.72727272727275" x2="280" y2="64.72727272727275" fill="rgb(0, 0, 0)" stroke="rgb(60, 60, 60)" stroke-width="1px" opacity="0.25"></line><line x1="0" y1="48.54545454545456" x2="280" y2="48.54545454545456" fill="rgb(0, 0, 0)" stroke="rgb(60, 60, 60)" stroke-width="1px" opacity="0.25"></line><line x1="0" y1="32.363636363636374" x2="280" y2="32.363636363636374" fill="rgb(0, 0, 0)" stroke="rgb(60, 60, 60)" stroke-width="1px" opacity="0.25"></line><line x1="0" y1="16.181818181818187" x2="280" y2="16.181818181818187" fill="rgb(0, 0, 0)" stroke="rgb(60, 60, 60)" stroke-width="1px" opacity="0.25"></line><line x1="0" y1="0" x2="280" y2="0" fill="rgb(0, 0, 0)" stroke="rgb(60, 60, 60)" stroke-width="1px" opacity="0.25"></line></g></g></g><g><g><line x1="0" y1="161.8181818181818" x2="280" y2="161.8181818181818" fill="rgb(0, 0, 0)" stroke="rgb(153, 153, 153)" stroke-width="1.5px"></line></g></g><g><g><line x1="25.454545454545457" y1="0" x2="25.454545454545457" y2="178" fill="rgb(0, 0, 0)" stroke="rgb(153, 153, 153)" stroke-width="1.5px"></line></g></g><g><g><g><g><g><path stroke="rgb(255, 112, 67)" stroke-width="2px" d="M27.078545454545456,-6.512051017816407L27.872727272727275,1.3862510082638473L28.188363636363636,23.051756886291372L28.407272727272726,34.87150840869918L28.44290909090909,42.05837541811505L28.687272727272727,46.91197016130862L28.75345454545455,49.99140076937505L28.875636363636367,51.66370071383613L29.094545454545454,53.198573337793704L29.135272727272728,54.28087361177087L29.456,55.402840016146214L29.542545454545454,56.21844673625024L29.573090909090908,56.93822954103964L29.715636363636364,57.90721574595342L30.40290909090909,59.43709638284429L30.62181818181818,63.607324561828726L30.886545454545455,67.28324683549103L31.080000000000002,70.4619333711103L31.46690909090909,71.71910607016439L31.879272727272728,72.21894047342458L32.15927272727273,73.06477392952175L32.17454545454545,73.6418885472171L32.24581818181818,74.26310867935427L32.26618181818182,74.67755780042229L32.51054545454546,75.02377024900991L32.54618181818182,75.33154070986832L32.77018181818182,75.55822482342187L32.92290909090909,75.71536966758826L33.21309090909091,41.85637785686556L33.360727272727274,28.341834583404186L33.442181818181815,22.4931944701783L33.52363636363636,21.651640947222653L34.068363636363635,28.54056158895844L34.28727272727273,35.040836828859334L34.30254545454546,39.056785793827366L34.84727272727273,44.395113707275655L34.959272727272726,48.31895550431081L35.01527272727272,50.937725784463815L35.218909090909094,53.31257651628518L35.305454545454545,55.339712519111565L35.37163636363636,56.93324930046749L35.82472727272727,66.68481176135417L36.13018181818182,73.7135566990082L36.59345454545454,78.57365445075314L36.654545454545456,81.77804224792334L36.81745454545455,84.09276236411459L36.848,85.35698147388052L36.975272727272724,85.92340539232673L37.20436363636364,86.4821228404986L37.62181818181818,86.60401879235626L37.86109090909091,86.69237056825905L37.94763636363636,86.86945832534153L37.95781818181818,86.91859067808429L37.98327272727273,86.99464635125034L38.11054545454545,82.9313101967809L38.11563636363637,80.6332012556196L38.17672727272728,80.72375376638612L38.20218181818182,81.00313860491474L38.349818181818186,81.71128369541123L38.42618181818182,83.1772529151671L38.45672727272727,84.62295448635362L39.12872727272727,87.7681349810675L39.40872727272727,89.8049065311598L40.56436363636364,92.55643010810464L40.92581818181818,95.42299528958036L40.94109090909091,97.38082923697232L41.236363636363635,98.43486342661748L41.552,98.6878914032009L41.90327272727273,99.02466484812115L41.974545454545456,99.45093347700042L41.98472727272728,99.75634192054251L41.98981818181818,99.9872531462109L42.28509090909091,100.2769947791769L43.176,101.33123623344797L43.87854545454545,101.46709818035282L43.88872727272727,101.52146627810276L44.14327272727273,101.55010563317941L44.50472727272727,101.3228415164211L44.76945454545454,101.20988981204383L44.876363636363635,101.18932391245185L44.912,101.19067657829915L45.45672727272727,101.35188258629361L45.59927272727273,105.84980923823579L45.741818181818175,109.19510238160476L46.00654545454545,109.59756450256847L46.32218181818182,109.03313066764994L46.82109090909091,108.8199918965034L46.978909090909085,108.5500457313649L47.00436363636364,108.43637305333894L47.43709090909091,107.73345527658758L47.447272727272725,107.29719257013846L47.85963636363636,107.0589400921222L48.328,105.73223975318953L48.414545454545454,104.50652773662108L48.52145454545454,104.49422953904798L49.20363636363636,105.86836677366625L49.224000000000004,106.76256593645456L49.26472727272727,107.32793397382676L49.83490909090909,107.44636653414291L49.90618181818182,107.58785084380894L50.099636363636364,107.597906909442L50.16072727272727,107.39848994897802L50.374545454545455,107.25613517141178L50.76654545454546,109.49045161135317L51.168727272727274,110.3558324342427L51.178909090909094,110.88094251925311L51.45381818181818,111.65032436268991L51.59636363636364,112.44149619232095L52.130909090909086,112.23672599835574L52.670545454545454,111.50079142162865L52.74181818181818,111.0443482627686L53.05236363636364,110.84299241484501L53.709090909090904,111.99868483152947L54.37090909090909,111.90902687792159L54.59490909090909,111.86736180268957L55.02763636363636,112.24283951668065L55.12945454545454,112.39031514234401L55.31272727272727,112.3962286861255L55.348363636363636,112.42146288951234L55.531636363636366,112.41033204663881L55.63854545454546,114.92292292061718L55.95418181818182,116.37439109985179L56.056,116.79679729675466L56.62109090909091,117.5006891161135L56.672,117.86264385726908L57.023272727272726,117.47059264259744L57.089454545454544,117.22507636289667L57.12,116.97612829964247L57.186181818181815,116.75531037697453L57.47636363636364,116.38626545588637L57.59345454545455,116.21188158833174L57.91927272727273,115.82418256752874L58.65236363636364,116.75202869896731L58.92727272727272,116.51101397317706L59.074909090909095,116.26568698626357L59.34981818181818,115.90832759096274L59.54836363636363,115.66018298576881L59.56363636363637,115.54616138524183L59.62472727272727,115.50798586122015L59.78254545454545,115.71330133472249L60.35272727272727,115.8431592515046L60.922909090909094,117.22314719850519L61.05527272727272,119.30410602387605L61.635636363636365,119.13447707656567L61.67636363636363,119.01354065125587L61.885090909090906,118.64849067625101L62.35345454545454,118.45483120238978L62.679272727272725,118.31911959188537L62.92363636363636,118.12104460180397L63.04072727272727,117.84072494636155L63.38690909090909,120.16422714831175L63.43781818181818,121.24532133148972L63.45309090909091,121.92807814634686L63.52945454545454,121.79802437951638L63.69745454545455,121.12633816959381L64.624,120.41015340966588L64.9650909090909,119.83750194577124L65.10763636363636,119.33821961714203L65.15854545454546,119.00089923889374L65.33672727272727,118.8470508769752L66.1410909090909,118.9371753566461L66.52290909090908,119.96798578805797L67.10327272727272,120.78771255394427L67.312,120.95860258112533L67.88727272727273,120.68917079896929L68.0349090909091,120.52347042638779L68.06036363636363,120.37090561783636L68.10618181818182,120.32118409436376L68.56436363636364,121.08661408054598L68.57963636363635,121.51213828168427L68.72218181818182,121.337293201069L68.77309090909091,121.19255182673602L69.24654545454545,120.97681546906493L69.41963636363636,120.7809245974901L69.72509090909091,120.6276221291689L70.35636363636364,121.10736739300135L70.65672727272727,125.51439732220331L70.78909090909092,125.63544734443975L70.80436363636363,125.14467338290174L70.91127272727273,124.8159640242999L70.9469090909091,124.78969325430717L71.24218181818182,124.79222275337457L71.27272727272727,124.96116229226898L71.55781818181819,124.55015434548953L72.60145454545454,123.72378555806262L72.88654545454546,123.30759917963071L73.04945454545455,122.99915631681884L73.49236363636363,124.02798429444283L73.66036363636364,124.6759824473551L74.06254545454546,124.49196083820844L74.09818181818181,124.26692242960867L74.16436363636363,123.9127990175096L74.46981818181818,123.51170220297513L74.62254545454546,123.16943957672407L74.73963636363636,122.99579224636597L74.83127272727273,122.81178569693722L75.56945454545453,122.71702035713895L75.89527272727273,124.65325188037254L76.664,125.60711927054224L76.79636363636364,126.37533103076808L77.77381818181819,125.89180647304389L77.80945454545454,125.58911836617538L78.38472727272728,123.84002863342484L78.4,123.08283432436212L78.50690909090909,123.02405812807217L78.80727272727273,123.22791796551006L79.02618181818181,123.61200036671184L79.45890909090909,124.36978394482931L79.61672727272727,124.78736380102332L79.69818181818182,124.9462512910274L79.78472727272728,125.02084775176364L79.98836363636364,125.16693624446279L80.22254545454547,125.22613721461965L80.22763636363636,125.27694241084328L80.33963636363637,125.32664824326169L80.51781818181819,125.29360391703119L80.65018181818182,125.32977107333897L80.696,123.62806577836673L80.96072727272727,124.26197172994355L80.976,124.77379461838133L81.1490909090909,126.00689657593132L81.16945454545454,126.67497012220079L81.28654545454545,126.9395200909402L81.31709090909091,127.28743900772379L81.32727272727273,127.46059409546903L81.56145454545455,127.27230863649659L81.9789090909091,127.20621551474069L82.07563636363636,127.07914885575201L82.12145454545455,127.09588777132515L82.46763636363637,127.00163945403128L82.47781818181818,126.9807532772751L82.78327272727273,127.06100757988283L83.59272727272727,127.62948326457189L83.86254545454545,128.4551016493684L83.96436363636364,128.75285777202794L84.12218181818182,128.69398215698493L84.16799999999999,128.5773995855506L84.25454545454545,128.49087105409458L84.34109090909091,128.4018134899452L84.75854545454546,128.29350210375492L84.87563636363637,128.16838183653138L84.94690909090909,128.06013626682193L85.32363636363637,127.78275526171474L85.90400000000001,127.67434202685196L86.39272727272729,128.0849873117949L86.41818181818182,128.2775151947184L86.60145454545456,128.1714238275695L86.75927272727272,128.03575664783438L87.2530909090909,128.12842559287446L87.38545454545455,128.21246847573434L87.40581818181818,128.22841195393622L87.48727272727272,128.2466210286288L87.70109090909091,128.04826001126742L88.0269090909091,127.83487077073127L88.04218181818182,127.73240256887921L88.12363636363636,127.78206231074157L88.61236363636364,128.74965753373385L88.88218181818182,130.0181775897122L89.36581818181818,130.5766013844617L89.96654545454547,130.33151162441146L90.10909090909091,130.22645838722931L90.64872727272727,129.97837237028577L91.01527272727272,131.07368275609412L91.33090909090909,131.6460556311796L91.728,132.0416497845936L91.81454545454545,132.31275742842053L91.95200000000001,132.12746001456338L92.05890909090908,131.9944778187252L92.12,131.95671323285833L92.19636363636364,131.92434377930905L92.48654545454545,131.9993381403174L92.69018181818181,131.85015736777754L92.85818181818182,131.62152872646445L93.41818181818181,130.81476642208236L93.688,131.48264347893885L93.70836363636364,132.05252960227392L93.81018181818182,132.74906008022865L94.20727272727272,133.1584212207557L94.4210909090909,133.147620587248L94.68072727272727,132.77841250006082L94.79781818181817,132.44087137901835L95.09818181818181,132.05075403742606L95.11345454545454,131.81955884132535L95.592,131.58190598952297L95.76509090909092,133.41901372754722L95.94327272727273,134.12070323105598L96.14181818181818,134.78387587711777L96.61018181818181,134.8533632906465L96.72218181818182,134.94698986180302L97.13963636363637,134.05540012903887L97.85745454545454,133.25280977350292L98.19345454545456,132.8048822899732L98.2290909090909,132.5546357405229L98.27490909090909,132.5961362507803L98.36145454545455,131.6634251478341L98.42254545454544,130.25682137138895L98.45309090909092,129.90687708583732L98.75345454545455,130.60774697271253L99.00800000000001,131.75062244993987L99.24727272727273,132.60830085087252L99.56800000000001,132.88330297399258L99.94981818181819,133.33575375947936L99.98036363636363,133.6591419571147L100.13309090909091,133.89184117820352L100.1789090909091,133.98245773834066L100.22981818181819,133.95511329355176L100.69818181818182,133.62085378278695L100.744,133.37324727513757L100.76436363636364,134.6304724207369L100.85090909090908,135.71984698284388L101.17672727272726,135.5747356138424L101.27345454545456,135.5001119556197L101.96072727272727,134.94484688804286L102.28145454545455,134.52434554187988L102.51563636363637,134.2434614351521L102.73963636363636,133.9460432960902L103.17745454545455,134.04785052634077L103.47272727272728,132.4214785492771L104.23127272727272,132.7904766752497L104.24145454545456,133.03469878703862L104.40436363636364,133.2302340621166L104.56218181818181,133.3968456241138L104.86254545454545,133.14346279978278L105.59054545454545,133.1225777371768L105.71272727272728,133.11260554868787L105.75854545454544,133.12891113241528L106.03854545454544,135.73253989343218L106.80727272727272,136.01131593171473L106.87854545454545,136.1792750384704L107.39781818181818,136.14398879077896L107.50472727272727,136.08001298521623L108.18181818181817,136.0073150043928L108.54836363636363,135.0812366512563L108.66036363636364,134.723037687099L108.74690909090909,134.91605459986582L108.98109090909091,135.25696919870538L109.15418181818183,135.51137259420148L109.48509090909091,135.37162585636716L109.89236363636363,135.3885499777513L110.27927272727273,135.15544403446418L110.46254545454546,135.05676607510162L111.02763636363636,134.62654065133648L111.03272727272727,134.34438616658161L111.20581818181819,135.00741387327912L111.27709090909092,135.3866453247311L111.4909090909091,136.25547729864698L112.34109090909091,136.62896991441727L112.4989090909091,136.9317512985635L112.672,137.0030414301821L113.22181818181818,136.84600537270498L113.38981818181819,136.16256364787282L113.48145454545454,137.39403164096922L113.49163636363636,138.18253751927654L113.61381818181819,138.57225130887164L113.6189090909091,138.61609299605797L113.63418181818183,138.70784686689095L113.7309090909091,138.4747050748791L113.9090909090909,138.28671402287364L114.06690909090909,137.93611135920108L114.26545454545455,137.57942468212L114.31636363636365,137.48087049242878L114.76945454545455,136.99386812767509L114.84072727272726,136.67137718890598L114.98836363636364,136.4993507231579L115.02909090909091,136.4621710897487L115.17672727272728,136.5367735696436L115.68072727272727,136.48685667730794L116.85672727272727,137.75269594625541L116.99927272727274,138.39483967434006L117.04509090909092,138.6432424356271L117.18763636363637,138.604102106891L117.36581818181818,138.49609776475327L117.42690909090909,138.38636146107655L117.75272727272727,138.19710367772404L118.44,140.17019301240427L118.71490909090909,139.94004233611315L119.392,139.52257538018418L119.3970909090909,139.29937545058712L120.10981818181818,139.0736455698303L120.72581818181818,139.04255235614778L120.76145454545455,139.06565784792815L121.39781818181818,140.04047458452953L121.9730909090909,139.93529617564934L122.06981818181819,139.82176446781787L122.21236363636365,139.69466459888145L122.32436363636363,139.69865589440798L122.43127272727273,139.63815294618516L122.77745454545455,139.42199099717692L123.04727272727273,139.17888463369266L123.34254545454546,140.6390009842915L123.56654545454546,140.31153305957875L124.65599999999999,140.19301087774568L124.74763636363636,140.04546581739461L124.85963636363637,139.9564835317444L124.89018181818182,140.00794042111866L125.44509090909091,139.83928412663707L125.51636363636364,139.818360857067L125.57236363636363,139.76995117939995L125.85236363636363,144.70779635811522L125.90836363636363,144.78894330227993L125.93890909090909,144.17895931482903L126.23927272727272,142.85785125780458L126.37672727272728,142.11275420295752L126.49381818181818,141.8586754358807L126.85018181818181,141.6796693862947L126.96218181818182,141.56088934311106L127.13018181818181,141.50815151261045L127.25236363636363,141.57220571875263L127.456,141.55727664234237L127.54763636363636,141.52356115017258L127.57818181818182,141.47294299026683L127.59345454545455,141.3785034517938L127.98036363636365,141.17540951807626L127.98545454545454,141.04551106075405L128.22472727272728,140.79296164251434L128.38254545454546,138.58699929600832L128.52,141.50795739929495L128.5352727272727,143.34503890300164L128.56072727272726,144.2571825837374L128.92218181818183,144.12125319571973L128.9781818181818,143.9581750488544L129.22763636363638,143.3489128037957L129.51781818181817,142.61729102205877L129.7469090909091,142.12166158155316L129.95563636363636,141.73662621636436L130.0218181818182,141.48657422036024L130.0269090909091,141.3145319052561L130.1389090909091,141.10202832497393L130.22036363636363,140.9535953122104L130.78545454545454,140.818080771484L130.89236363636363,143.44037549353177L131.24363636363637,143.0354200727408L131.2589090909091,142.84035748348083L131.264,142.8066305773691L131.50836363636364,142.77719202924638L131.63054545454546,142.57788630300087L132.30254545454545,142.5830961908571L132.70981818181818,142.40586956036304L132.776,142.23975508679823L133.10181818181817,142.0329677527431L133.43272727272728,141.76111482554197L133.54981818181818,141.14036742812326L133.97745454545455,142.29829785153282L133.99272727272728,142.87302361086017L134.01818181818183,143.23166653118625L134.35927272727272,142.88651979545196L134.45090909090908,142.67535910409896L134.83272727272728,142.69419445743577L135.03127272727272,142.6971772397944L135.83563636363635,142.38945998353998L136.04945454545455,143.8083146071627L136.05454545454546,144.46127172826712L136.38545454545454,144.10008802289792L136.416,143.93923603785325L136.54836363636363,143.45707359433996L136.65527272727272,143.19479354280185L136.68581818181818,143.05158164752476L137.49018181818184,143.05055226151643L138.7069090909091,142.93017316293148L138.7730909090909,143.13368700999874L138.94618181818183,143.72946644568847L139.06836363636364,143.65817642330498L139.13963636363636,143.86290812346778L139.2821818181818,144.05745471736944L139.86254545454545,144.1898256038713L140.04072727272728,144.12889820578943L140.2290909090909,143.75094423222313L140.69236363636364,143.34500659856226L141.35418181818181,144.29101225077198L141.736,144.40897339025952L142.19418181818182,143.99198598636173L142.20945454545455,143.7807029034348L142.95781818181817,143.84241259099227L142.97818181818184,143.88537497196035L143.1970909090909,143.80610648589123L143.25309090909093,143.77982300073703L143.304,143.7476195622893L143.4770909090909,142.1789148667917L143.528,140.85988034667815L143.66036363636363,141.82241901944155L143.88945454545453,142.980330763671L144.00654545454546,143.77326797694212L144.26618181818182,143.9707460640521L144.38836363636364,143.7159872110603L144.4850909090909,143.4907260191175L144.72436363636362,143.21879433593458L145.29963636363635,143.1438215792257L145.54909090909092,143.32435277603355L145.96145454545456,145.00374695524582L146.01745454545454,144.77954406603632L146.11927272727272,144.76513102363947L146.4909090909091,144.38470306820514L146.7810909090909,144.46053025456735L147.3258181818182,144.58218439636292L148.04363636363635,144.39195155902033L148.24218181818182,144.21046146362295L148.38981818181819,144.09689820609415L148.83272727272728,144.314870056684L149.0770909090909,144.2841235284874L149.0872727272727,144.23866012602267L149.2807272727273,144.0516840533784L149.39781818181817,143.98335860685913L149.75927272727273,144.18392910831653L150.4770909090909,144.47124041048414L150.80290909090908,144.71313616156849L151.18981818181817,144.45788558814905L151.3018181818182,144.18632216422873L151.34254545454547,144.18961767113223L152.11636363636362,144.33334441147943L152.22836363636364,144.47040346145073L152.39636363636362,144.57305615364086L152.7730909090909,144.52072449023305L152.97163636363638,144.31745243204864L153.40945454545454,144.2252323212762L153.78109090909092,144.78211574667114L153.90836363636365,145.1819656881677L153.97454545454545,145.35211446351818L154.02036363636364,145.51504463344114L154.42254545454546,145.51261602980566L154.7229090909091,145.06329662180457L155.3032727272727,144.82698062460076L155.37963636363637,144.66847170125624L155.78181818181818,144.71297553238162L156.22472727272728,146.4122618608181L156.6778181818182,146.20049194908978L156.86618181818181,146.3102904019493L157.04436363636364,146.00652187864952L157.4210909090909,146.0128029952324L158.05236363636362,145.9048744790589L158.15927272727274,145.88935568268292L158.20509090909093,145.90720553164434L158.28654545454543,145.94389697021367L158.60727272727271,146.03053024745387L158.61236363636363,146.02758562277685L158.68363636363637,145.360460217877L159.30981818181817,145.35603449002838L159.36581818181816,145.36444682306336L159.87490909090909,145.46362234933224L160.216,145.48786657052338L161.2341818181818,146.67139576617595L161.88072727272726,146.9068718575244L161.88581818181817,147.04596035508055L162.03345454545456,147.26828960998768L162.04363636363638,147.4084122195369L162.54763636363637,147.13879796244765L163.31127272727272,147.01322173864122L163.63709090909092,147.77618650073097L163.66763636363635,148.3568942808114L163.6981818181818,148.34768289811518L163.71854545454548,148.42658651382175L163.7236363636364,148.47217905934014L164.10545454545456,147.99097948863775L164.3090909090909,147.51482236360496L164.5890909090909,147.25129593920968L165.2,147.06391439363898L165.4850909090909,146.8085940484464L165.984,146.8326626628467L166.03490909090908,146.6100331680781L166.07054545454545,146.06709507868976L166.16218181818184,146.2737917766946L166.45236363636363,146.6077169208405L166.67636363636365,147.28605546580366L167.1141818181818,147.3529780985511L167.57745454545454,147.48380106632038L167.58763636363636,147.5858178362984L167.75054545454546,147.60667273609815L167.8421818181818,147.6222238872803L169.2829090909091,147.65434646757043L169.4152727272727,147.73644877870927L169.63927272727273,147.66639189145812L169.91927272727273,147.7519153727403L170.2349090909091,147.61153327826162L170.3010909090909,147.42584271400546L170.76945454545452,147.35396129156413L170.91709090909092,147.33586006539403L171.11563636363636,147.51155852456023L172.54109090909088,148.01885917022577L172.94327272727273,148.15064986542262L173.07563636363636,148.17768551000106L173.18763636363636,148.2034454334701L173.28436363636362,148.2293002685535L173.41163636363638,148.24683623252622L173.4930909090909,148.25621679377636L173.5541818181818,145.1876541725467L173.7730909090909,146.05212864154237L174.11927272727272,146.5708745694216L174.4349090909091,147.1223057505034L175.4938181818182,147.54366698677956L175.52945454545454,147.82072576120322L175.5752727272727,147.92446357260133L175.82981818181818,147.89753572222853L175.8450909090909,147.84886773979116L175.952,147.73058611268885L176.10981818181818,149.88740606972627L176.20654545454545,150.5825877474436L176.89890909090911,150.06318885713043L177.31127272727272,149.6611101708203L177.31636363636366,149.39652804946513L177.48945454545455,149.14086706994433L178.1869090909091,148.9555798731842L178.21236363636365,148.84430145886043L178.34472727272728,148.82496571125307L178.5789090909091,149.8720005378934L178.65527272727272,148.87863016390764L179.07272727272726,148.68675128920708L179.29163636363637,148.44370031863028L179.424,148.406545107801L179.63272727272727,148.48370710490138L179.85163636363637,148.65521043769766L180.52363636363637,148.80045738683762L180.55927272727274,148.915508392471L180.57963636363635,148.98762205693924L181.0989090909091,151.26636972155995L181.30254545454545,150.10774468909344L181.7810909090909,149.4232477767018L181.85236363636363,148.9390948428361L181.94400000000002,148.72243836874384L182.1578181818182,148.746853616509L183.54254545454546,148.84552763339633L183.81236363636364,147.88149961059977L184.41818181818184,148.21171438178288L185.34472727272725,148.34241424381165L185.5330909090909,148.5599620549103L186.01163636363637,148.6653092746866L186.8210909090909,149.55850051042304L186.95345454545455,149.9240299507518L187.1570909090909,150.00251976950565L187.39127272727274,150.10400728818482L187.7221818181818,150.02728763537178L187.75781818181818,149.9468358031632L187.79854545454546,149.9701521959572L188.0429090909091,149.90189234686633L188.08872727272728,149.88026380159647L188.38909090909092,149.80057093002586L188.45527272727273,149.7349990321723L189.19345454545456,150.2331063099818L189.25454545454545,150.40360335560973L189.42254545454546,150.52315621190488L189.63636363636363,150.52140131037098L189.96727272727273,150.3792229722019L190.344,150.22324958568723L190.5832727272727,150.09485536834597L190.91418181818185,149.9378082666782L191.06181818181818,149.84542125817785L191.128,150.2726667891433L191.47927272727273,151.08576295308302L191.49454545454546,151.55073303409728L191.71345454545457,151.43758351841373L191.96290909090908,150.9338416606875L192.248,150.64067308175353L192.92,150.6094848322574L192.95563636363636,150.6006176162023L192.96072727272727,150.56935674911654L192.99636363636364,150.59001161652537L193.46981818181817,150.58883193079726L193.5309090909091,150.60044189604034L193.6327272727273,149.04199168542897L194.2130909090909,149.60892931442837L194.23345454545455,150.04176939294294L194.3709090909091,150.43410197302487L194.38109090909091,150.6613644195972L194.83927272727274,150.57166305220755L195.19563636363637,150.56919909466558L195.3330909090909,150.55096908398204L195.36872727272728,150.50812407182838L195.384,150.43629026538622L195.51127272727274,150.41098763042766L196.20363636363638,151.2132013545442L196.672,151.3181933477038L196.70763636363637,151.49854090191914L197.16581818181817,151.61759199075152L197.21163636363636,151.65422620290778L197.27272727272728,151.68751393993162L197.36945454545454,151.7102496665359L197.45600000000002,151.68684228581756L197.73090909090908,151.5131494985647L197.792,151.42516317938075L197.9192727272727,151.38232466454798L198.072,151.35019839115057L198.10763636363637,151.2684753284553L198.4029090909091,151.09865040780574L198.63709090909092,153.39553781434415L198.73381818181818,151.9415810969362L198.76945454545455,151.31332107530824L199.00363636363636,151.00937376218207L199.26836363636363,151.15502416966655L199.28363636363636,151.24371988050575L199.46181818181816,151.4126111741482L200.12363636363636,151.1947278403792L200.38836363636364,151.02203917752115L200.39345454545455,150.92243883000424L200.50036363636366,150.84931193853112L200.78036363636363,150.75014662726988L201.22327272727273,150.1736924116324L201.22836363636364,150.03350292937117L201.42181818181817,150.48991837732234L201.6,151.09168878466141L201.64581818181819,151.34628655909015L201.84436363636362,151.43352836716375L202.0938181818182,151.4208769493917L202.3738181818182,151.40540941536324L202.53672727272726,151.5106106258408L203.02036363636364,151.44765812173068L203.7941818181818,151.32881942562645L204.04363636363638,151.2408865825134L204.2269090909091,151.35687154365547L204.54254545454546,151.49635777699007L204.93454545454546,151.7862673857524L204.9498181818182,151.9781839297352L205.33672727272727,151.97564367764383L205.44363636363636,151.97206584022535L205.48436363636364,151.94268904841329L205.55054545454547,151.9215938665001L205.56072727272726,151.91673410964452L205.59127272727272,151.86126949752293L206.0901818181818,151.73629703089006L206.10036363636365,151.65786976251195L206.54327272727272,151.08960198324652L206.55854545454545,150.76382899640856L206.696,150.6937213203839L207.56654545454546,150.9213365483113L207.60218181818183,151.08593631899416L207.93818181818182,151.11247886325916L207.96363636363634,151.1332163378141L208.4930909090909,151.23367628623117L208.57963636363638,151.28407421050275L208.92072727272728,151.31426522174525L209.02254545454545,151.63264721601092L209.56727272727272,151.9804047127516L209.832,152.1996297748493L209.90836363636365,152.32067647266211L209.98472727272727,152.41250164647866L210.0661818181818,152.4377824939054L210.13236363636364,152.48962365954776L210.31054545454546,152.4230139375092L210.40727272727273,152.3768108493847L210.44290909090907,152.33518942092974L211.6290909090909,152.0052664728849L211.93454545454543,151.74631892426868L212.08727272727273,151.64637219181097L212.184,151.67924393251528L212.6370909090909,151.7294792990169L212.83563636363638,151.73701260991038L212.856,151.7127284242774L212.9018181818182,151.7331053000944L212.93236363636365,151.72369381517078L213.05963636363634,151.77016116978308L213.3498181818182,151.83077372790325L214.09309090909093,152.92565817967895L214.68363636363637,153.24998356195704L214.85163636363637,153.27202888522177L215.40654545454547,153.20630719397823L215.4370909090909,153.18677229311137L215.4829090909091,153.17656804696364L216.13963636363636,152.89391329360663L216.31272727272727,153.48513605388686L216.67927272727272,153.92476215639957L217.616,153.3377752366238L217.71272727272728,153.0428830265365L217.93163636363636,152.8453257207057L218.28290909090907,152.73361622075487L219.37745454545455,152.6191052071521L219.89163636363637,152.62571971522115L220.17163636363637,152.53249001230424L220.248,152.55962942620943L220.59927272727273,152.484792777294L220.77236363636365,152.45614425390065L221.14909090909092,152.4447769314268L221.23054545454545,150.46105441338585L221.28654545454546,150.0664262044183L221.45963636363635,151.03530459916195L221.8669090909091,151.6012681730615L222.17745454545457,152.01356325251567L222.18254545454548,152.23262489423414L222.47781818181818,152.4136257152329L222.57963636363635,152.53207965756692L222.79854545454546,152.6303054336622L222.82399999999998,152.67698967393451L223.19054545454546,152.7186362409041L223.90836363636365,152.83423328723637L224.02545454545455,152.92307609459888L224.03054545454546,153.01304141529712L224.7229090909091,153.11350885755985L225.2116363636364,153.05493883707246L225.512,153.02157393726398L225.56799999999998,153.0430598573032L226.79490909090907,153.21332327982282L227.01381818181818,153.3496575935675L227.22254545454547,153.45521723532636L227.5789090909091,153.36943977981457L227.72145454545455,153.3139493644271L227.9810909090909,153.31992447853287L228.47490909090908,153.3435451037679L228.51563636363636,153.34095016943832L228.6327272727273,153.29456946476026L228.65818181818182,153.25884121031163L228.74472727272726,153.26533506462604L229.00436363636365,153.8404187189698L229.19781818181818,153.8714909927344L230.23636363636365,153.82979041684354L230.6029090909091,153.71747960818655L231.13745454545455,153.6009474027706L231.58036363636364,152.86352172339005L231.64145454545454,152.575110862626L231.80436363636366,152.614790256441L231.9469090909091,152.67349488419967L232.38981818181819,152.92815440118824L232.44072727272726,153.13036227791184L232.47127272727272,153.2512703349674L232.49163636363636,153.3462354807167L232.64945454545455,153.4983732751781L232.65963636363637,153.6049784230618L232.73090909090908,153.61557219560422L232.76145454545454,153.65090576111743L233.1330909090909,153.72115131144858L234.39054545454545,153.83707629831082L234.42618181818182,153.8975176210327L234.83854545454548,153.82269841674434L234.9709090909091,153.80766503630883L235.42909090909092,153.76791542974757L235.56654545454546,153.67822376884337L235.9229090909091,153.58391375594275L236.2690909090909,153.49963517556532L236.35054545454545,151.59233053557946L236.68654545454544,152.30380078627934L236.93090909090907,152.8339859790244L237.01236363636363,153.21142902110392L237.16,153.56483083230697L237.28727272727272,153.75573271994529L237.384,153.92864367871508L238.1170909090909,153.85492929631974L238.1578181818182,153.7590040548062L238.48363636363638,153.72394638233604L238.6210909090909,153.73571963836142L239.30836363636362,153.96213569642376L239.344,153.97827353662467L239.43563636363638,154.03228326139038L239.96,153.87377344395304L240.08218181818182,153.7318282214519L240.13309090909092,153.6109500487549L240.20436363636364,153.63816159399494L240.51999999999998,153.56659041575605L240.86618181818184,153.4857052722043L241.00363636363636,153.49477192078467L241.33963636363637,154.2257939162356L241.40581818181818,154.7872258408911L241.56872727272727,154.94747232591303L241.66036363636366,154.822797473532L241.71127272727273,154.89741492861415L241.8181818181818,154.87821923848335L242.3730909090909,154.81987261973714L242.72945454545453,154.6224956437847L243.22836363636364,154.381413733276L243.824,155.21994206192466L244.01745454545454,155.13236398951904L244.18545454545455,155.07608207519687L244.272,154.88597814712426L244.47054545454546,154.706634274509L245.70254545454546,154.61362366271297L245.78400000000002,154.57729536474568L246.51709090909088,155.01220062103545L246.78181818181818,155.01919946453432L247.00581818181817,154.981890534919L247.184,154.90920180197068L247.33672727272727,154.91418137619203L247.45890909090912,154.95118913009077L247.5810909090909,154.97601749490468L247.62181818181818,155.03451260485346L247.67781818181817,155.10164423321544L247.68290909090908,155.14974081726695L247.98836363636363,155.07120113282315L248.12581818181818,154.93076107328483L248.14618181818182,154.84944337914143L248.22254545454547,154.73532615596991L248.3549090909091,154.6800064544485L248.4109090909091,154.60845601020435L248.4669090909091,154.51749041732873L248.6349090909091,154.54310513118398L249.06763636363635,153.9575398766856L249.33745454545456,154.04389533044244L249.35781818181817,154.16726740059786L249.424,154.20320473499345L249.8312727272727,154.20645443757L249.85163636363637,154.2318151239676L249.98909090909092,154.34841616470896L250.0349090909091,154.30499725380383L250.47781818181818,154.35712776467327L250.51345454545455,154.40345220984997L250.73745454545454,154.43797410371184L251.00727272727275,154.4336767328138L251.18545454545455,154.44213931482437L251.2058181818182,154.43760092525886L251.51636363636362,154.54702912144296L252.01018181818182,154.50464724524278L252.20363636363635,154.66252522265805L252.4378181818182,154.80512939667423L252.44290909090907,154.88487493207936L252.45818181818183,154.95468876216614L252.74327272727274,154.96151875419608L253.1709090909091,154.88491775805036L253.2930909090909,154.84037523343187L253.54254545454546,154.79932189996364L253.61381818181817,154.73840931663108L254.3672727272727,154.81212882329177L254.52,154.86664535480233L254.82036363636362,155.0667435963871L255.08,155.2144114426003L256.12872727272725,155.01370547177297L256.17454545454547,154.87734671212377L256.2763636363636,154.76684760697785L256.43418181818186,154.6339806931285L256.4443636363636,154.10649089210546L257.1316363636364,154.35048864382316L257.3149090909091,154.53036380197562L257.5389090909091,154.63241622732204L257.8392727272727,154.71414403468225L257.90036363636364,154.78616864564657L258.47563636363634,154.78643009711885L258.664,154.85148533157079L258.8218181818182,154.91190723868243L259,155.09567832145493L259.76363636363635,155.14827499721667L259.80945454545457,155.21358150204554L259.9469090909091,155.2204221988623L260.09963636363636,155.18357032295765L260.27272727272725,155.15634487505594L260.5018181818182,155.03829463221498L260.54254545454546,154.98325185227205L260.68509090909095,154.9785780005704L261.26036363636365,154.9564034046019L261.3418181818182,154.9810601327318L261.45890909090906,155.9011423958349L261.6574545454545,156.1507478253575L261.74399999999997,156.1702791201085L262.1818181818182,155.7826638428575L262.22763636363635,155.5981203577208L262.40072727272724,155.52444670023786L262.9250909090909,155.48366820955545L262.9861818181818,155.4570140852641L263.1847272727273,155.4711495749258L263.44945454545456,155.4585314557397L264.91563636363634,155.38417852965205L265.0225454545454,155.23419413107052L265.74036363636367,155.31550001529754L265.9592727272727,155.31731569263445L266.2290909090909,155.31615031222006L266.26472727272727,155.32859568815584L266.3665454545455,155.27336146627377L266.4938181818182,155.4013102721841L266.4989090909091,155.31639294292916L266.95709090909094,155.4384014043647L267.2218181818182,155.40389320995493L267.5272727272727,155.18797043735705L267.5629090909091,155.0981990161398L267.71054545454547,155.00001131291523L267.9803636363636,154.96929305073817L268.00072727272726,154.94635710122867L268.0669090909091,154.9602078085756L268.1381818181818,154.98647213275743L268.26036363636365,154.97155540273982L268.32145454545457,154.94073627154955L268.48436363636364,154.93603996004313L268.52,154.95418052631192L268.5912727272727,154.9344568162253L269.1665454545454,155.59117664694784L269.22254545454547,156.08509601127017L269.25309090909093,156.33944628763197L269.46181818181816,156.5810777325023L269.4821818181818,156.71116960517102L269.55345454545454,156.75937261483176L269.67054545454545,156.55030891803835L270.2101818181818,156.22190709308455L270.4290909090909,156.0422809770716L270.6530909090909,155.9363453543248L270.7447272727273,155.94178706416588L270.82618181818185,155.93234006930487L270.9789090909091,155.88224502480034L271.3301818181818,155.72366563181228L271.96654545454544,155.73297652315097L272.18545454545455,155.64563647173804L272.19563636363637,155.610888065475L272.384,155.61718640421498L272.3890909090909,155.62372415154704L272.44,155.66799183476232L272.4807272727273,155.67981687874735L272.608,155.72216648925573L273.03054545454546,155.83043044792603L273.056,155.87522064602206L273.112,155.87682070489046" style="fill: none;" fill="none"></path></g></g></g></g><g opacity="0.2"><g><g><g><path stroke="rgb(255, 112, 67)" stroke-width="2px" d="M27.078545454545456,-2.6730665293606917L27.872727272727275,13.207914720882059L28.188363636363636,55.507570721886395L28.407272727272726,52.58724201809277L28.44290909090909,52.83360719680788L28.687272727272727,54.1903083974665L28.75345454545455,54.60976481437685L28.875636363636367,54.17189587246289L29.094545454545454,55.500741980292595L29.135272727272728,55.904264666817426L29.456,57.0857527039268L29.542545454545454,57.44184071367439L29.573090909090908,58.017895221710226L29.715636363636364,59.360688166184865L30.40290909090909,61.7319108139385L30.62181818181818,69.86265615983444L30.886545454545455,72.79712460257792L31.080000000000002,75.22996024651962L31.46690909090909,73.60486442392524L31.879272727272728,72.96869191256438L32.15927272727273,74.33352394537492L32.17454545454545,74.50756040486424L32.24581818181818,75.1949388330633L32.26618181818182,75.2992314642126L32.51054545454546,75.54308891296388L32.54618181818182,75.79319639639421L32.77018181818182,75.8982509916479L32.92290909090909,75.9510869329626L33.21309090909091,-8.932109746066015L33.360727272727274,8.070019700310448L33.442181818181815,13.72023430737583L33.52363636363636,20.389310663396678L34.068363636363635,38.87394254857844L34.28727272727273,44.791249687021434L34.30254545454546,45.08070924065331L34.84727272727273,52.4026055769487L34.959272727272726,54.20471819964323L35.01527272727272,54.865881204605124L35.218909090909094,56.87485261396929L35.305454545454545,58.38041652332654L35.37163636363636,59.323554472489796L35.82472727272727,81.31215545264159L36.13018181818182,84.25667410547084L36.59345454545454,85.8638010783629L36.654545454545456,86.58462394367565L36.81745454545455,87.56484253840013L36.848,87.253310138529L36.975272727272724,86.77304126999597L37.20436363636364,87.32019901275636L37.62181818181818,86.78686272014272L37.86109090909091,86.82489823211324L37.94763636363636,87.13508996096526L37.95781818181818,86.99228920719843L37.98327272727273,87.10872986099939L38.11054545454545,76.8363059650768L38.11563636363637,77.18603784387763L38.17672727272728,80.85958253253591L38.20218181818182,81.42221586270767L38.349818181818186,82.77350133115596L38.42618181818182,85.37620674480092L38.45672727272727,86.7915068431334L39.12872727272727,92.48590572313829L39.40872727272727,92.86006385629828L40.56436363636364,96.68371547352184L40.92581818181818,99.72284306179394L40.94109090909091,100.31758015806025L41.236363636363635,100.01591471108524L41.552,99.06743336807598L41.90327272727273,99.52982501550154L41.974545454545456,100.09033642031932L41.98472727272728,100.21445458585566L41.98981818181818,100.33361998471348L42.28509090909091,100.71160722862591L43.176,102.91259841485457L43.87854545454545,101.6708911007101L43.88872727272727,101.60301842472772L44.14327272727273,101.59306466579437L44.50472727272727,100.98194534128363L44.76945454545454,101.0404622554779L44.876363636363635,101.1584750630639L44.912,101.19270557707007L45.45672727272727,101.59369159828533L45.59927272727273,112.59669921614909L45.741818181818175,114.21304209665819L46.00654545454545,110.20125768401408L46.32218181818182,108.18647991527212L46.82109090909091,108.50028373978357L46.978909090909085,108.14512648365717L47.00436363636364,108.26586403629999L47.43709090909091,106.67907861146061L47.447272727272725,106.64279851046477L47.85963636363636,106.7015613750978L48.328,103.74218924479051L48.414545454545454,102.66795971176843L48.52145454545454,104.47578224268828L49.20363636363636,107.9295726255937L49.224000000000004,108.10386468063702L49.26472727272727,108.17598602988505L49.83490909090909,107.62401537461714L49.90618181818182,107.800077308308L50.099636363636364,107.61299100789158L50.16072727272727,107.09936450828206L50.374545454545455,107.04260300506246L50.76654545454546,112.84192627126521L51.168727272727274,111.65390366857703L51.178909090909094,111.66860764676875L51.45381818181818,112.80439712784509L51.59636363636364,113.62825393676758L52.130909090909086,111.92957070740788L52.670545454545454,110.39688955653799L52.74181818181818,110.35968352447857L53.05236363636364,110.5409586429596L53.709090909090904,113.73222345655616L54.37090909090909,111.77453994750977L54.59490909090909,111.80486418984155L55.02763636363636,112.8060560876673L55.12945454545454,112.61152858083899L55.31272727272727,112.40509900179778L55.348363636363636,112.45931419459258L55.531636363636366,112.39363578232853L55.63854545454546,118.69180923158473L55.95418181818182,118.55159336870368L56.056,117.43040659210901L56.62109090909091,118.55652684515174L56.672,118.40557596900248L57.023272727272726,116.88251582058994L57.089454545454544,116.8568019433455L57.12,116.60270620476116L57.186181818181815,116.42408349297266L57.47636363636364,115.83269807425414L57.59345454545455,115.9503057869998L57.91927272727273,115.24263403632426L58.65236363636364,118.14379789612512L58.92727272727272,116.14949188449168L59.074909090909095,115.89769650589336L59.34981818181818,115.37228849801151L59.54836363636363,115.28796607797797L59.56363636363637,115.3751289844513L59.62472727272727,115.45072257518768L59.78254545454545,116.021274544976L60.35272727272727,116.0379461266778L60.922909090909094,119.29312911900608L61.05527272727272,122.42554426193237L61.635636363636365,118.88003365560012L61.67636363636363,118.83213601329112L61.885090909090906,118.10091571374373L62.35345454545454,118.16434199159796L62.679272727272725,118.11555217612874L62.92363636363636,117.82393211668189L63.04072727272727,117.42024546319789L63.38690909090909,123.64948045123708L63.43781818181818,122.86696260625666L63.45309090909091,122.9522133686326L63.52945454545454,121.60294372927059L63.69745454545455,120.11880885470998L64.624,119.335876269774L64.9650909090909,118.97852474992926L65.10763636363636,118.58929612419824L65.15854545454546,118.49491867152129L65.33672727272727,118.61627833409743L66.1410909090909,119.07236207615246L66.52290909090908,121.51420143517582L67.10327272727272,122.0173027027737L67.312,121.21493762189692L67.88727272727273,120.28502312573521L68.0349090909091,120.27491986751556L68.06036363636363,120.1420584050092L68.10618181818182,120.24660180915487L68.56436363636364,122.23475905981932L68.57963636363635,122.15042458339171L68.72218181818182,121.07502558014612L68.77309090909091,120.97543976523662L69.24654545454545,120.65321093255824L69.41963636363636,120.48708829012786L69.72509090909091,120.39766842668708L70.35636363636364,121.82698528875005L70.65672727272727,132.1249422160062L70.78909090909092,125.81702237779444L70.80436363636363,124.40851244059478L70.91127272727273,124.32289998639715L70.9469090909091,124.75028709931807L71.24218181818182,124.79601700197567L71.27272727272727,125.21457160061057L71.55781818181819,123.93364242532039L72.60145454545454,122.48423237692226L72.88654545454546,122.68331961198287L73.04945454545455,122.53649202260105L73.49236363636363,125.57122626087884L73.66036363636364,125.64797967672348L74.06254545454546,124.21592842448842L74.09818181818181,123.929364816709L74.16436363636363,123.38161389936101L74.46981818181818,122.91005698117344L74.62254545454546,122.6560456373475L74.73963636363636,122.73532125082885L74.83127272727273,122.53577587279408L75.56945454545453,122.5748723474416L75.89527272727273,127.55759916522288L76.664,127.03792035579681L76.79636363636364,127.52764867110686L77.77381818181819,125.16651963645762L77.80945454545454,125.13508620587264L78.38472727272728,121.216394034299L78.4,121.94704286076808L78.50690909090909,122.93589383363724L78.80727272727273,123.53370772166686L79.02618181818181,124.18812396851455L79.45890909090909,125.50645931200548L79.61672727272727,125.41373358531432L79.69818181818182,125.18458252603358L79.78472727272728,125.132742442868L79.98836363636364,125.38606898351149L80.22254545454547,125.31493866985495L80.22763636363636,125.3531502051787L80.33963636363637,125.40120699188928L80.51781818181819,125.2440374276855L80.65018181818182,125.38402180780065L80.696,121.07550783590837L80.96072727272727,125.21283065730876L80.976,125.54152895103802L81.1490909090909,127.85654951225628L81.16945454545454,127.67708044160497L81.28654545454545,127.33634504404937L81.31709090909091,127.80931738289921L81.32727272727273,127.72032672708686L81.56145454545455,126.98988044803794L81.9789090909091,127.10707583210687L82.07563636363636,126.888548867269L82.12145454545455,127.1209961446849L82.46763636363637,126.86026697809046L82.47781818181818,126.9494240121408L82.78327272727273,127.1813890337944L83.59272727272727,128.4821967916055L83.86254545454545,129.69352922656321L83.96436363636364,129.19949195601725L84.12218181818182,128.60566873442045L84.16799999999999,128.40252572839913L84.25454545454545,128.3610782569105L84.34109090909091,128.26822714372113L84.75854545454546,128.13103502446955L84.87563636363637,127.980701435696L84.94690909090909,127.8977679122578L85.32363636363637,127.366683754054L85.90400000000001,127.51172217455779L86.39272727272729,128.70095523920926L86.41818181818182,128.56630701910368L86.60145454545456,128.0122867768461L86.75927272727272,127.83225587823176L87.2530909090909,128.2674290104346L87.38545454545455,128.3385328000242L87.40581818181818,128.252327171239L87.48727272727272,128.27393464066768L87.70109090909091,127.75071848522533L88.0269090909091,127.51478690992703L88.04218181818182,127.57870026610117L88.12363636363636,127.85655192353511L88.61236363636364,130.20105036822233L88.88218181818182,131.9209576736797L89.36581818181818,131.41423707658595L89.96654545454547,129.96387698433617L90.10909090909091,130.068878531456L90.64872727272727,129.60624334487048L91.01527272727272,132.71664833480662L91.33090909090909,132.50461494380778L91.728,132.6350410147147L91.81454545454545,132.7194188941609L91.95200000000001,131.8495138937777L92.05890909090908,131.7950045249679L92.12,131.90006635405803L92.19636363636364,131.87578959898516L92.48654545454545,132.11182968182996L92.69018181818181,131.62638620896772L92.85818181818182,131.2785857644948L93.41818181818181,129.60462296550926L93.688,132.48445906422356L93.70836363636364,132.90735878727654L93.81018181818182,133.79385579716077L94.20727272727272,133.7724629315463L94.4210909090909,133.1314196369865L94.68072727272727,132.22460036928004L94.79781818181817,131.93455969745463L95.09818181818181,131.46557802503762L95.11345454545454,131.4727660471743L95.592,131.2254267118194L95.76509090909092,136.17467533458364L95.94327272727273,135.1732374863191L96.14181818181818,135.77863484621048L96.61018181818181,134.95759441093966L96.72218181818182,135.08742971853778L97.13963636363637,132.71801552989268L97.85745454545454,132.048924240199L98.19345454545456,132.13299106467855L98.2290909090909,132.1792659163475L98.27490909090909,132.65838701616636L98.36145454545455,130.2643584934148L98.42254545454544,128.14691570672122L98.45309090909092,129.3819606575099L98.75345454545455,131.65905180302533L99.00800000000001,133.46493566578087L99.24727272727273,133.89481845227155L99.56800000000001,133.2958061586727L99.94981818181819,134.01442993770948L99.98036363636363,134.14422425356778L100.13309090909091,134.2408900098367L100.1789090909091,134.11838257854637L100.22981818181819,133.91409662636843L100.69818181818182,133.1194645166397L100.744,133.00183751366356L100.76436363636364,136.51631013913587L100.85090909090908,137.35390882600439L101.17672727272726,135.3570685603402L101.27345454545456,135.38817646828565L101.96072727272727,134.11194928667763L102.28145454545455,133.89359352263537L102.51563636363637,133.8221352750605L102.73963636363636,133.49991608749738L103.17745454545455,134.2005613717166L103.47272727272728,129.9819205836816L104.23127272727272,133.34397386420858L104.24145454545456,133.40103195472196L104.40436363636364,133.52353697473353L104.56218181818181,133.64676296710968L104.86254545454545,132.76338856328618L105.59054545454545,133.0912501432679L105.71272727272728,133.09764726595446L105.75854545454544,133.15336950800636L106.03854545454544,139.63798303495756L106.80727272727272,136.4294799891385L106.87854545454545,136.4312136986039L107.39781818181818,136.09105941924182L107.50472727272727,135.98404927687213L108.18181818181817,135.8982680331577L108.54836363636363,133.6921191215515L108.66036363636364,134.18573924086311L108.74690909090909,135.205579969016L108.98109090909091,135.76834109696475L109.15418181818183,135.89297768744555L109.48509090909091,135.16200574961576L109.89236363636363,135.4139361598275L110.27927272727273,134.80578511953354L110.46254545454546,134.90874913605776L111.02763636363636,133.9812025156888L111.03272727272727,133.9211544394493L111.20581818181819,136.00195543332532L111.27709090909092,135.9554925019091L111.4909090909091,137.5587252595208L112.34109090909091,137.1892088380727L112.4989090909091,137.38592337478292L112.672,137.10997662760994L113.22181818181818,136.61045128648934L113.38981818181819,135.13740106062457L113.48145454545454,139.24123363061383L113.49163636363636,139.36529633673754L113.61381818181819,139.1568219932643L113.6189090909091,138.68185552683744L113.63418181818183,138.84547767314044L113.7309090909091,138.1249923868613L113.9090909090909,138.0047274448655L114.06690909090909,137.4102073636922L114.26545454545455,137.04439466649836L114.31636363636365,137.33303920789197L114.76945454545455,136.26336458054456L114.84072727272726,136.18764078075236L114.98836363636364,136.2413110245358L115.02909090909091,136.40640163963494L115.17672727272728,136.64867728948593L115.68072727272727,136.41198133880442L116.85672727272727,139.65145484967664L116.99927272727274,139.358055266467L117.04509090909092,139.01584657755765L117.18763636363637,138.54539161378688L117.36581818181818,138.3340912515467L117.42690909090909,138.2217570055615L117.75272727272727,137.91321700269526L118.44,143.1298270144246L118.71490909090909,139.59481632167643L119.392,138.89637494629082L119.3970909090909,138.96457555619153L120.10981818181818,138.73505074869504L120.72581818181818,138.99591253562406L120.76145454545455,139.10031608559868L121.39781818181818,141.50269968943164L121.9730909090909,139.77752856232902L122.06981818181819,139.6514669060707L122.21236363636365,139.50401479547676L122.32436363636363,139.70464283769783L122.43127272727273,139.5473985238509L122.77745454545455,139.09774807366458L123.04727272727273,138.81422508846632L123.34254545454546,142.82917551018974L123.56654545454546,139.82033117250964L124.65599999999999,140.01522760499608L124.74763636363636,139.82414822686803L124.85963636363637,139.82301010326907L124.89018181818182,140.08512575518003L125.44509090909091,139.58629968491468L125.51636363636364,139.78697595271197L125.57236363636363,139.69733666289937L125.85236363636363,152.1145641261881L125.90836363636363,144.91066371852702L125.93890909090909,143.26398333365267L126.23927272727272,140.8761891722679L126.37672727272728,140.99510862068698L126.49381818181818,141.47755728526548L126.85018181818181,141.41116031191567L126.96218181818182,141.38271927833557L127.13018181818181,141.42904476685956L127.25236363636363,141.6682870279659L127.456,141.53488302772698L127.54763636363636,141.47298791191795L127.57818181818182,141.39701575040817L127.59345454545455,141.23684414408424L127.98036363636365,140.87076861749998L127.98545454545454,140.8506633747708L128.22472727272728,140.41413751515475L128.38254545454546,135.2780557762493L128.52,145.88939455422488L128.5352727272727,146.1006611585617L128.56072727272726,145.62539810484105L128.92218181818183,143.91735911369324L128.9781818181818,143.71355782855642L129.22763636363638,142.43501943620768L129.51781818181817,141.51985834945333L129.7469090909091,141.37821742079475L129.95563636363636,141.1590731685812L130.0218181818182,141.1114962263541L130.0269090909091,141.05646843259987L130.1389090909091,140.78327295455065L130.22036363636363,140.73094579306516L130.78545454545454,140.6148089603944L130.89236363636363,147.37381757660344L131.24363636363637,142.42798694155434L131.2589090909091,142.5477635995908L131.264,142.75604021820155L131.50836363636364,142.73303420706227L131.63054545454546,142.27892771363258L132.30254545454545,142.59091102264145L132.70981818181818,142.14002961462194L132.776,141.99058337645099L133.10181818181817,141.72278675166044L133.43272727272728,141.35333543474025L133.54981818181818,140.2092463319952L133.97745454545455,144.03519348664716L133.99272727272728,143.73511224985123L134.01818181818183,143.76963091167536L134.35927272727272,142.36879969185048L134.45090909090908,142.3586180670695L134.83272727272728,142.72244748744097L135.03127272727272,142.70165141333234L135.83563636363635,141.92788409915838L136.04945454545455,145.93659654259682L136.05454545454546,145.44070740992373L136.38545454545454,143.5583124648441L136.416,143.69795806028625L136.54836363636363,142.73382992907003L136.65527272727272,142.80137346549466L136.68581818181818,142.83676380460912L137.49018181818184,143.04900818250397L138.7069090909091,142.74960451505402L138.7730909090909,143.4389577805996L138.94618181818183,144.62313559922305L139.06836363636364,143.55124138972977L139.13963636363636,144.17000567371196L139.2821818181818,144.34927460822192L139.86254545454545,144.3883819336241L140.04072727272728,144.0375071086667L140.2290909090909,143.18401327187365L140.69236363636364,142.73610014807096L141.35418181818181,145.7100207290866L141.736,144.5859150994908L142.19418181818182,143.366504880515L142.20945454545455,143.46377827904442L142.95781818181817,143.9349771223285L142.97818181818184,143.94981854341248L143.1970909090909,143.68720375678757L143.25309090909093,143.74039777300575L143.304,143.69931440461767L143.4770909090909,139.8258578235453L143.528,138.88132856650785L143.66036363636363,143.26622702858666L143.88945454545453,144.7171983800151L144.00654545454546,144.9626737968488L144.26618181818182,144.26696319471708L144.38836363636364,143.33384893157265L144.4850909090909,143.15283423120326L144.72436363636362,142.81089681116018L145.29963636363635,143.03136244416237L145.54909090909092,143.59514957124537L145.96145454545456,147.52283822406423L146.01745454545454,144.4432397322221L146.11927272727272,144.74351146004418L146.4909090909091,143.81406113505363L146.7810909090909,144.5742710341107L147.3258181818182,144.7646656090563L148.04363636363635,144.10660230300644L148.24218181818182,143.9382263205268L148.38981818181819,143.926553319801L148.83272727272728,144.6418278325688L149.0770909090909,144.23800373619252L149.0872727272727,144.17046502232552L149.2807272727273,143.77121994441205L149.39781818181817,143.8808704370802L149.75927272727273,144.4847848605026L150.4770909090909,144.90220736373556L150.80290909090908,145.075979788195L151.18981818181817,144.0750097280199L151.3018181818182,143.77897702834824L151.34254545454547,144.19456093148753L152.11636363636362,144.54893452200022L152.22836363636364,144.67599203640765L152.39636363636362,144.7270351919261L152.7730909090909,144.44222699512136L152.97163636363638,144.012544344772L153.40945454545454,144.08690215511754L153.78109090909092,145.61744088476354L153.90836363636365,145.78174060041255L153.97454545454545,145.6073376265439L154.02036363636364,145.7594398883256L154.42254545454546,145.50897312435237L154.7229090909091,144.3893175098029L155.3032727272727,144.47250662879512L155.37963636363637,144.43070831623945L155.78181818181818,144.77973127906972L156.22472727272728,148.9611913534728L156.6778181818182,145.88283708149737L156.86618181818181,146.47498808123848L157.04436363636364,145.5508690936999L157.4210909090909,146.0222246701067L158.05236363636362,145.7429817047986L158.15927272727274,145.86607748811895L158.20509090909093,145.9339803050865L158.28654545454543,145.9989341280677L158.60727272727271,146.16048016331413L158.61236363636363,146.02316868576136L158.68363636363637,144.35977211052722L159.30981818181817,145.34939589825544L159.36581818181816,145.3770653226159L159.87490909090909,145.6123856387355L160.216,145.5242329023101L161.2341818181818,148.44668955965474L161.88072727272726,147.26008599454707L161.88581818181817,147.25459310141477L162.03345454545456,147.6017834923484L162.04363636363638,147.61859613386068L162.54763636363637,146.7343765768138L163.31127272727272,146.82485740293157L163.63709090909092,148.92063364386559L163.66763636363635,149.22795595093206L163.6981818181818,148.33386582407084L163.71854545454548,148.54494193738157L163.7236363636364,148.54056787761775L164.10545454545456,147.26918013258413L164.3090909090909,146.80058667605573L164.5890909090909,146.8560063026168L165.2,146.78284207528287L165.4850909090909,146.4256135306575L165.984,146.86876558444717L166.03490909090908,146.27608892592517L166.07054545454545,145.2526879446073L166.16218181818184,146.58383682370186L166.45236363636363,147.1086046370593L166.67636363636365,148.3035632832484L167.1141818181818,147.45336204767227L167.57745454545454,147.68003551797435L167.58763636363636,147.7388429912654L167.75054545454546,147.63795508579776L167.8421818181818,147.64555061405355L169.2829090909091,147.70253033800557L169.4152727272727,147.8596022454175L169.63927272727273,147.5613065605814L169.91927272727273,147.88020059466362L170.2349090909091,147.40096013654363L170.3010909090909,147.14730686762115L170.76945454545452,147.24613915790212L170.91709090909092,147.3087082261389L171.11563636363636,147.77510621330956L172.54109090909088,148.77981013872406L172.94327272727273,148.34833590821788L173.07563636363636,148.21823897686872L173.18763636363636,148.24208531867373L173.28436363636362,148.2680825211785L173.41163636363638,148.27314017848536L173.4930909090909,148.2702876356515L173.5541818181818,140.58481024070218L173.7730909090909,147.3488403450359L174.11927272727272,147.34899346124044L174.4349090909091,147.9494525221261L175.4938181818182,148.1757088411938L175.52945454545454,148.23631392283872L175.5752727272727,148.0800702896985L175.82981818181818,147.8571439466693L175.8450909090909,147.77586576613513L175.952,147.5531636720354L176.10981818181818,153.1226360052824L176.20654545454545,151.62536026401952L176.89890909090911,149.28409052166072L177.31127272727272,149.05799214135516L177.31636363636366,148.99965486743233L177.48945454545455,148.7573756006631L178.1869090909091,148.67764907804403L178.21236363636365,148.67738383737478L178.34472727272728,148.79596208984202L178.5789090909091,151.44255277785388L178.65527272727272,147.38857460292903L179.07272727272726,148.3989329771562L179.29163636363637,148.07912386276504L179.424,148.35081229155713L179.63272727272727,148.59945010055196L179.85163636363637,148.91246543689206L180.52363636363637,149.01832781054756L180.55927272727274,149.08808490092105L180.57963636363635,149.0957925536416L181.0989090909091,154.68449121849105L181.30254545454545,148.3698071403937L181.7810909090909,148.39650240811434L181.85236363636363,148.21286544203758L181.94400000000002,148.39745365760544L182.1578181818182,148.78347648815677L183.54254545454546,148.9935386587273L183.81236363636364,146.43545757640493L184.41818181818184,148.70703653855756L185.34472727272725,148.53846403685483L185.5330909090909,148.88628377155825L186.01163636363637,148.82333010435104L186.8210909090909,150.8982873640277L186.95345454545455,150.4723241112449L187.1570909090909,150.12025449763644L187.39127272727274,150.25623856620356L187.7221818181818,149.91220815615222L187.75781818181818,149.8261580548503L187.79854545454546,150.00512678514826L188.0429090909091,149.79950257323006L188.08872727272728,149.84782098369166L188.38909090909092,149.6810316226699L188.45527272727273,149.63664118539202L189.19345454545456,150.98026722669601L189.25454545454545,150.65934892405164L189.42254545454546,150.7024854963476L189.63636363636363,150.51876895807007L189.96727272727273,150.1659554649483L190.344,149.9892895059152L190.5832727272727,149.9022640423341L190.91418181818185,149.70223761417648L191.06181818181818,149.7068407454274L191.128,150.9135350855914L191.47927272727273,152.30540719899264L191.49454545454546,152.24818815561858L191.71345454545457,151.26785924488848L191.96290909090908,150.17822887409818L192.248,150.20092021335256L192.92,150.56270245801318L192.95563636363636,150.58731679211962L192.96072727272727,150.52246544848788L192.99636363636364,150.6209939176386L193.46981818181817,150.58706240220502L193.5309090909091,150.617856843905L193.6327272727273,146.70431636951187L194.2130909090909,150.45933575792745L194.23345454545455,150.6910295107148L194.3709090909091,151.02260084314779L194.38109090909091,151.0022580894557L194.83927272727274,150.43711100112307L195.19563636363637,150.56550315835258L195.3330909090909,150.52362406795675L195.36872727272728,150.4438565535979L195.384,150.328539555723L195.51127272727274,150.37303367798978L196.20363636363638,152.416521940719L196.672,151.47568133744326L196.70763636363637,151.76906223324212L197.16581818181817,151.7961686240001L197.21163636363636,151.7091775211421L197.27272727272728,151.73744554546747L197.36945454545454,151.74435325644234L197.45600000000002,151.65173121474007L197.73090909090908,151.2526103176854L197.792,151.29318370060489L197.9192727272727,151.3180668922988L198.072,151.30200898105448L198.10763636363637,151.14589073441246L198.4029090909091,150.84391302683136L198.63709090909092,156.84086892415178L198.73381818181818,149.76064602082425L198.76945454545455,150.37093104286626L199.00363636363636,150.55345279249278L199.26836363636363,151.37349978089333L199.28363636363636,151.3767634467645L199.46181818181816,151.6659481146119L200.12363636363636,150.86790283972567L200.38836363636364,150.76300618323413L200.39345454545455,150.77303830872881L200.50036363636366,150.7396216013215L200.78036363636363,150.601398660378L201.22327272727273,149.30901108817622L201.22836363636364,149.82321870597926L201.42181818181817,151.17454154924914L201.6,151.99434439567003L201.64581818181819,151.72818322073329L201.84436363636362,151.5643910792741L202.0938181818182,151.4018998227336L202.3738181818182,151.38220811432058L202.53672727272726,151.6684124415571L203.02036363636364,151.35322936556557L203.7941818181818,151.15056138147008L204.04363636363638,151.10898731784388L204.2269090909091,151.53084898536855L204.54254545454546,151.70558712699196L204.93454545454546,152.22113179889593L204.9498181818182,152.26605874570933L205.33672727272727,151.97183329950678L205.44363636363636,151.96669908409768L205.48436363636364,151.89862386069515L205.55054545454547,151.88995109363034L205.56072727272726,151.90944447436115L205.59127272727272,151.7780725793405L206.0901818181818,151.54883833094075L206.10036363636365,151.5402288599448L206.54327272727272,150.2372003143484L206.55854545454545,150.2751695161516L206.696,150.5885598063469L207.56654545454546,151.26275939020243L207.60218181818183,151.3328359750184L207.93818181818182,151.15229267965663L207.96363636363634,151.16432254964656L208.4930909090909,151.38436620885676L208.57963636363638,151.35967109691012L208.92072727272728,151.35955173860896L209.02254545454545,152.1102202074094L209.56727272727272,152.50204095786268L209.832,152.52846736799586L209.90836363636365,152.50224651938134L209.98472727272727,152.5502394072034L210.0661818181818,152.47570376504552L210.13236363636364,152.56738540801135L210.31054545454546,152.32309935445136L210.40727272727273,152.30750621719793L210.44290909090907,152.27275727824733L211.6290909090909,151.51038205081767L211.93454545454543,151.35789760134438L212.08727272727273,151.4964520931244L212.184,151.72855154357174L212.6370909090909,151.80483234876937L212.83563636363638,151.74831257625058L212.856,151.6763021458279L212.9018181818182,151.7636706138199L212.93236363636365,151.70957658778536L213.05963636363634,151.83986220170152L213.3498181818182,151.9216925650835L214.09309090909093,154.56798485734245L214.68363636363637,153.73647163537416L214.85163636363637,153.30509687011892L215.40654545454547,153.1077246571129L215.4370909090909,153.15746994181112L215.4829090909091,153.161261677742L216.13963636363636,152.4699311635711L216.31272727272727,154.37197019430724L216.67927272727272,154.58420131016862L217.616,152.45729485696012L217.71272727272728,152.60054471140558L217.93163636363636,152.54898976195943L218.28290909090907,152.56605197082865L219.37745454545455,152.447338686748L219.89163636363637,152.63564147732475L220.17163636363637,152.39264545792884L220.248,152.6003385470672L220.59927272727273,152.37253780392084L220.77236363636365,152.4131714688106L221.14909090909092,152.42772594771603L221.23054545454545,147.48547063632444L221.28654545454546,149.47448389096692L221.45963636363635,152.48862219127741L221.8669090909091,152.45021353391084L222.17745454545457,152.63200587169692L222.18254545454548,152.56121735681188L222.47781818181818,152.68512694673106L222.57963636363635,152.709760571068L222.79854545454546,152.77764409780502L222.82399999999998,152.74701603434303L223.19054545454546,152.78110609135845L223.90836363636365,153.00762885673478L224.02545454545455,153.05634030564264L224.03054545454546,153.14798939634454L224.7229090909091,153.26421002095395L225.2116363636364,152.96708380634135L225.512,152.9715265875513L225.56799999999998,153.0752887373621L226.79490909090907,153.46871841360223L227.01381818181818,153.55415906418455L227.22254545454547,153.61355669796467L227.5789090909091,153.24077359654686L227.72145454545455,153.23071374134585L227.9810909090909,153.32888714969158L228.47490909090908,153.37897604162043L228.51563636363636,153.3370577679439L228.6327272727273,153.2249984077432L228.65818181818182,153.20524882863867L228.74472727272726,153.27507584609768L229.00436363636365,154.7030442004854L229.19781818181818,153.91809940338135L230.23636363636365,153.76723955300722L230.6029090909091,153.5490133952011L231.13745454545455,153.42614909464663L231.58036363636364,151.75738320431927L231.64145454545454,152.1424945714799L231.80436363636366,152.67430934716356L231.9469090909091,152.76155182583764L232.38981818181819,153.31014367667112L232.44072727272726,153.4336740929972L232.47127272727272,153.4326324205507L232.49163636363636,153.48868319934064L232.64945454545455,153.72657996687022L232.65963636363637,153.76488614488733L232.73090909090908,153.6314628544179L232.76145454545454,153.70390610938722L233.1330909090909,153.82651963694528L234.39054545454545,154.01096377860415L234.42618181818182,153.98817960511553L234.83854545454548,153.71046961031178L234.9709090909091,153.7851149656556L235.42909090909092,153.7082910199057L235.56654545454546,153.54368627748707L235.9229090909091,153.44244873659179L236.2690909090909,153.37321730499917L236.35054545454545,148.7313735756007L236.68654545454544,153.37100616232917L236.93090909090907,153.62926376814193L237.01236363636363,153.77759358422324L237.16,154.09493354911154L237.28727272727272,154.04208555140278L237.384,154.18801011686975L238.1170909090909,153.74435772272673L238.1578181818182,153.6151161925359L238.48363636363638,153.6713598736308L238.6210909090909,153.75337952239946L239.30836363636362,154.30175978351724L239.344,154.00248029692605L239.43563636363638,154.1132978485389L239.96,153.636008717797L240.08218181818182,153.51891038770026L240.13309090909092,153.42963278970936L240.20436363636364,153.678978911855L240.51999999999998,153.4592336483977L240.86618181818184,153.3643775568767L241.00363636363636,153.50837189365518L241.33963636363637,155.32232690941203L241.40581818181818,155.6293737278743L241.56872727272727,155.1878420534459L241.66036363636366,154.6357851949605L241.71127272727273,155.00934111123735L241.8181818181818,154.84942570328712L242.3730909090909,154.73235269161788L242.72945454545453,154.32643017985603L243.22836363636364,154.01979086751288L243.824,156.47773455489767L244.01745454545454,155.0009968809106L244.18545454545455,154.9916592037136L244.272,154.60082225501537L244.47054545454546,154.43761846558616L245.70254545454546,154.47410774501887L245.78400000000002,154.52280291779473L246.51709090909088,155.6645585054701L246.78181818181818,155.0296977297826L247.00581818181817,154.925927140496L247.184,154.8001687025482L247.33672727272727,154.92165073752403L247.45890909090912,155.0067007609389L247.5810909090909,155.01326004212552L247.62181818181818,155.1222552697767L247.67781818181817,155.20234167575836L247.68290909090908,155.2218856933442L247.98836363636363,154.95339160615748L248.12581818181818,154.72010098397732L248.14618181818182,154.72746683792636L248.22254545454547,154.56415032121268L248.3549090909091,154.59702690216628L248.4109090909091,154.50113034383818L248.4669090909091,154.38104202801532L248.6349090909091,154.5815272019668L249.06763636363635,153.079191994938L249.33745454545456,154.1734285110777L249.35781818181817,154.35232550583103L249.424,154.25711073658684L249.8312727272727,154.21132899143478L249.85163636363637,154.269856153564L249.98909090909092,154.523317725821L250.0349090909091,154.23986888744614L250.47781818181818,154.43532353097743L250.51345454545455,154.47293887761506L250.73745454545454,154.48975694450465L251.00727272727275,154.42723067646676L251.18545454545455,154.4548331878402L251.2058181818182,154.43079334091055L251.51636363636362,154.71117141571912L252.01018181818182,154.44107443094254L252.20363636363635,154.89934218878096L252.4378181818182,155.01903565769845L252.44290909090907,155.00449323518708L252.45818181818183,155.0594095072963L252.74327272727274,154.971763742241L253.1709090909091,154.77001626383174L253.2930909090909,154.77356144650415L253.54254545454546,154.7377418997613L253.61381818181817,154.64704044163227L254.3672727272727,154.92270808328283L254.52,154.94842015206814L254.82036363636362,155.36689095876434L255.08,155.43591321192005L256.12872727272725,154.712646515532L256.17454545454547,154.67280857264996L256.2763636363636,154.60109894925898L256.43418181818186,154.4346803223545L256.4443636363636,153.31525619057092L257.1316363636364,154.71648527139968L257.3149090909091,154.80017653920433L257.5389090909091,154.78549486534163L257.8392727272727,154.8367357457226L257.90036363636364,154.89420556209305L258.47563636363634,154.78682227432728L258.664,154.9490681832487L258.8218181818182,155.0025400993499L259,155.37133494561368L259.76363636363635,155.2271700108593L259.80945454545457,155.3115412592888L259.9469090909091,155.2306832440875L260.09963636363636,155.12829250910065L260.27272727272725,155.11550670320338L260.5018181818182,154.86121926795352L260.54254545454546,154.9006876823577L260.68509090909095,154.97156722301787L261.26036363636365,154.92314151064917L261.3418181818182,155.01804522492668L261.45890909090906,157.28126579048958L261.6574545454545,156.52515596964142L261.74399999999997,156.19957606223497L262.1818181818182,155.20124092698097L262.22763636363635,155.32130513001573L262.40072727272724,155.41393621401355L262.9250909090909,155.4225004735318L262.9861818181818,155.41703289882705L263.1847272727273,155.49235280941832L263.44945454545456,155.43960427696055L264.91563636363634,155.27264914052054L265.0225454545454,155.00921753319827L265.74036363636367,155.43745884163812L265.9592727272727,155.32003920863974L266.2290909090909,155.3144022415985L266.26472727272727,155.3472637520595L266.3665454545455,155.1905101334507L266.4938181818182,155.59323348104954L266.4989090909091,155.18901694904673L266.95709090909094,155.621414096518L267.2218181818182,155.35213091834024L267.5272727272727,154.86408627846023L267.5629090909091,154.96354188431394L267.71054545454547,154.8527297580784L267.9803636363636,154.9232156574726L268.00072727272726,154.9119531769644L268.0669090909091,154.98098386959597L268.1381818181818,155.02586861903018L268.26036363636365,154.94918030771342L268.32145454545457,154.89450757476416L268.48436363636364,154.92899549278346L268.52,154.98139137571508L268.5912727272727,154.90487125109541L269.1665454545454,156.57625639303163L269.22254545454547,156.82597505775365L269.25309090909093,156.7209717021747L269.46181818181816,156.94352489980784L269.4821818181818,156.90630741417408L269.55345454545454,156.83167712932283L269.67054545454545,156.23671337284824L270.2101818181818,155.72930435565385L270.4290909090909,155.77284180305222L270.6530909090909,155.7774419202046L270.7447272727273,155.9499496289275L270.82618181818185,155.91816957701337L270.9789090909091,155.80710245804354L271.3301818181818,155.48579654233023L271.96654545454544,155.746942860159L272.18545454545455,155.51462639461863L272.19563636363637,155.55876545608044L272.384,155.6266339123249L272.3890909090909,155.63353077254513L272.44,155.73439335958525L272.4807272727273,155.69755444472486L272.608,155.7856909050183L273.03054545454546,155.99282638593152L273.056,155.94240594316614L273.112,155.87922079319304" style="fill: none;" fill="none"></path></g></g></g></g></g></g><g transform="translate(50, 178)" clip-path="url(#clip_1)"><clipPath id="clip_1"><rect width="280" height="22"></rect></clipPath><g><g><line x1="0" y1="0" x2="0" y2="5" style="visibility: inherit;" fill="rgb(0, 0, 0)" stroke="rgb(204, 204, 204)" stroke-width="1px"></line><line x1="25.454545454545457" y1="0" x2="25.454545454545457" y2="5" style="visibility: inherit;" fill="rgb(0, 0, 0)" stroke="rgb(204, 204, 204)" stroke-width="1px"></line><line x1="50.909090909090914" y1="0" x2="50.909090909090914" y2="5" style="visibility: inherit;" fill="rgb(0, 0, 0)" stroke="rgb(204, 204, 204)" stroke-width="1px"></line><line x1="76.36363636363636" y1="0" x2="76.36363636363636" y2="5" style="visibility: inherit;" fill="rgb(0, 0, 0)" stroke="rgb(204, 204, 204)" stroke-width="1px"></line><line x1="101.81818181818183" y1="0" x2="101.81818181818183" y2="5" style="visibility: inherit;" fill="rgb(0, 0, 0)" stroke="rgb(204, 204, 204)" stroke-width="1px"></line><line x1="127.27272727272727" y1="0" x2="127.27272727272727" y2="5" style="visibility: inherit;" fill="rgb(0, 0, 0)" stroke="rgb(204, 204, 204)" stroke-width="1px"></line><line x1="152.72727272727272" y1="0" x2="152.72727272727272" y2="5" style="visibility: inherit;" fill="rgb(0, 0, 0)" stroke="rgb(204, 204, 204)" stroke-width="1px"></line><line x1="178.1818181818182" y1="0" x2="178.1818181818182" y2="5" style="visibility: inherit;" fill="rgb(0, 0, 0)" stroke="rgb(204, 204, 204)" stroke-width="1px"></line><line x1="203.63636363636365" y1="0" x2="203.63636363636365" y2="5" style="visibility: inherit;" fill="rgb(0, 0, 0)" stroke="rgb(204, 204, 204)" stroke-width="1px"></line><line x1="229.0909090909091" y1="0" x2="229.0909090909091" y2="5" style="visibility: inherit;" fill="rgb(0, 0, 0)" stroke="rgb(204, 204, 204)" stroke-width="1px"></line><line x1="254.54545454545453" y1="0" x2="254.54545454545453" y2="5" style="visibility: inherit;" fill="rgb(0, 0, 0)" stroke="rgb(204, 204, 204)" stroke-width="1px"></line><line x1="280" y1="0" x2="280" y2="5" style="visibility: inherit;" fill="rgb(0, 0, 0)" stroke="rgb(204, 204, 204)" stroke-width="1px"></line></g><g transform="translate(0, 8)"><text x="0" y="0" dx="0em" dy="0.95em" style="text-anchor: middle; visibility: hidden; font-family: Roboto, sans-serif; font-size: 12px; font-weight: 200;" fill="rgb(50, 49, 63)" stroke="none" stroke-width="1px">-5k</text><text x="25.454545454545457" y="0" dx="0em" dy="0.95em" style="text-anchor: middle; visibility: inherit; font-family: Roboto, sans-serif; font-size: 12px; font-weight: 200;" fill="rgb(50, 49, 63)" stroke="none" stroke-width="1px">0</text><text x="50.909090909090914" y="0" dx="0em" dy="0.95em" style="text-anchor: middle; visibility: inherit; font-family: Roboto, sans-serif; font-size: 12px; font-weight: 200;" fill="rgb(50, 49, 63)" stroke="none" stroke-width="1px">5k</text><text x="76.36363636363636" y="0" dx="0em" dy="0.95em" style="text-anchor: middle; visibility: inherit; font-family: Roboto, sans-serif; font-size: 12px; font-weight: 200;" fill="rgb(50, 49, 63)" stroke="none" stroke-width="1px">10k</text><text x="101.81818181818183" y="0" dx="0em" dy="0.95em" style="text-anchor: middle; visibility: inherit; font-family: Roboto, sans-serif; font-size: 12px; font-weight: 200;" fill="rgb(50, 49, 63)" stroke="none" stroke-width="1px">15k</text><text x="127.27272727272727" y="0" dx="0em" dy="0.95em" style="text-anchor: middle; visibility: inherit; font-family: Roboto, sans-serif; font-size: 12px; font-weight: 200;" fill="rgb(50, 49, 63)" stroke="none" stroke-width="1px">20k</text><text x="152.72727272727272" y="0" dx="0em" dy="0.95em" style="text-anchor: middle; visibility: inherit; font-family: Roboto, sans-serif; font-size: 12px; font-weight: 200;" fill="rgb(50, 49, 63)" stroke="none" stroke-width="1px">25k</text><text x="178.1818181818182" y="0" dx="0em" dy="0.95em" style="text-anchor: middle; visibility: inherit; font-family: Roboto, sans-serif; font-size: 12px; font-weight: 200;" fill="rgb(50, 49, 63)" stroke="none" stroke-width="1px">30k</text><text x="203.63636363636365" y="0" dx="0em" dy="0.95em" style="text-anchor: middle; visibility: inherit; font-family: Roboto, sans-serif; font-size: 12px; font-weight: 200;" fill="rgb(50, 49, 63)" stroke="none" stroke-width="1px">35k</text><text x="229.0909090909091" y="0" dx="0em" dy="0.95em" style="text-anchor: middle; visibility: inherit; font-family: Roboto, sans-serif; font-size: 12px; font-weight: 200;" fill="rgb(50, 49, 63)" stroke="none" stroke-width="1px">40k</text><text x="254.54545454545453" y="0" dx="0em" dy="0.95em" style="text-anchor: middle; visibility: inherit; font-family: Roboto, sans-serif; font-size: 12px; font-weight: 200;" fill="rgb(50, 49, 63)" stroke="none" stroke-width="1px">45k</text><text x="280" y="0" dx="0em" dy="0.95em" style="text-anchor: middle; visibility: hidden; font-family: Roboto, sans-serif; font-size: 12px; font-weight: 200;" fill="rgb(50, 49, 63)" stroke="none" stroke-width="1px">50k</text></g><line x1="0" y1="0" x2="280" y2="0" fill="rgb(0, 0, 0)" stroke="rgb(204, 204, 204)" stroke-width="1px"></line></g></g></g></g></svg>